<svg width="244" height="238" viewBox="0 0 244 238" fill="none" xmlns="http://www.w3.org/2000/svg">
<path d="M234 119C234 178.966 184.092 228 122 228C59.9079 228 10 178.966 10 119C10 59.0342 59.9079 10 122 10C184.092 10 234 59.0342 234 119Z" stroke="url(#paint0_linear_4_104)" stroke-width="20"/>
<ellipse cx="163.538" cy="144.5" rx="15.9762" ry="11.9" fill="#EED4E5" fill-opacity="0.3"/>
<line x1="5" y1="-5" x2="98.386" y2="-5" transform="matrix(0.988989 -0.147989 0.155367 0.987857 74.3619 111.067)" stroke="url(#paint1_linear_4_104)" stroke-width="10" stroke-linecap="round"/>
<line x1="5" y1="-5" x2="54.5251" y2="-5" transform="matrix(0.0292792 0.999571 -0.999612 0.027858 73.7809 103.7)" stroke="url(#paint2_linear_4_104)" stroke-width="10" stroke-linecap="round"/>
<line x1="5" y1="-5" x2="49.4775" y2="-5" transform="matrix(0.0533204 0.998577 -0.998712 0.0507372 167.314 88.4)" stroke="url(#paint3_linear_4_104)" stroke-width="10" stroke-linecap="round"/>
<ellipse cx="68.8428" cy="163.2" rx="15.9762" ry="11.9" fill="#EED4E5" fill-opacity="0.3"/>
<ellipse cx="163.538" cy="112.2" rx="15.9762" ry="11.9" fill="#F97734"/>
<line x1="5" y1="-5" x2="95.6098" y2="-5" transform="matrix(0.988989 -0.147989 0.155367 0.987857 74.3619 76.4018)" stroke="url(#paint4_linear_4_104)" stroke-width="10" stroke-linecap="round"/>
<line x1="5" y1="-5" x2="54.5251" y2="-5" transform="matrix(0.0292792 0.999571 -0.999612 0.027858 73.7809 71.4)" stroke="url(#paint5_linear_4_104)" stroke-width="10" stroke-linecap="round"/>
<line x1="5" y1="-5" x2="49.4775" y2="-5" transform="matrix(0.0533204 0.998577 -0.998712 0.0507372 167.314 56.0999)" stroke="url(#paint6_linear_4_104)" stroke-width="10" stroke-linecap="round"/>
<ellipse cx="68.8428" cy="130.9" rx="15.9762" ry="11.9" fill="#F97734"/>
<defs>
<linearGradient id="paint0_linear_4_104" x1="122" y1="0" x2="122" y2="238" gradientUnits="userSpaceOnUse">
<stop offset="0.457367" stop-color="#F97734"/>
<stop offset="0.789464" stop-color="#D1B1C8" stop-opacity="0.5"/>
</linearGradient>
<linearGradient id="paint1_linear_4_104" x1="51.693" y1="0" x2="51.693" y2="1" gradientUnits="userSpaceOnUse">
<stop stop-color="#EED4E5" stop-opacity="0.3"/>
<stop offset="0.9375" stop-color="#D1B1C8" stop-opacity="0.5"/>
</linearGradient>
<linearGradient id="paint2_linear_4_104" x1="29.7626" y1="0" x2="29.7626" y2="1" gradientUnits="userSpaceOnUse">
<stop stop-color="#EED4E5" stop-opacity="0.3"/>
<stop offset="0.9375" stop-color="#D1B1C8" stop-opacity="0.5"/>
</linearGradient>
<linearGradient id="paint3_linear_4_104" x1="27.2387" y1="0" x2="27.2387" y2="1" gradientUnits="userSpaceOnUse">
<stop stop-color="#EED4E5" stop-opacity="0.3"/>
<stop offset="0.9375" stop-color="#D1B1C8" stop-opacity="0.5"/>
</linearGradient>
<linearGradient id="paint4_linear_4_104" x1="50.3049" y1="0" x2="50.3049" y2="1" gradientUnits="userSpaceOnUse">
<stop stop-color="#F97734"/>
<stop offset="0.9375" stop-color="#D1B1C8" stop-opacity="0.5"/>
</linearGradient>
<linearGradient id="paint5_linear_4_104" x1="29.7626" y1="0" x2="29.7626" y2="1" gradientUnits="userSpaceOnUse">
<stop stop-color="#F97734"/>
<stop offset="0.9375" stop-color="#D1B1C8" stop-opacity="0.5"/>
</linearGradient>
<linearGradient id="paint6_linear_4_104" x1="27.2387" y1="0" x2="27.2387" y2="1" gradientUnits="userSpaceOnUse">
<stop stop-color="#F97734"/>
<stop offset="0.9375" stop-color="#D1B1C8" stop-opacity="0.5"/>
</linearGradient>
</defs>
</svg>
